<svg data-v-0dd9719b="" version="1.0" xmlns="http://www.w3.org/2000/svg" xmlns:xlink="http://www.w3.org/1999/xlink" width="100%" height="100%" viewBox="0 0 340.000000 250.000000" preserveAspectRatio="xMidYMid meet" color-interpolation-filters="sRGB" style="margin: auto;"> <rect data-v-0dd9719b="" x="0" y="0" width="100%" height="100%" fill="#fff" fill-opacity="1" class="background"></rect> <rect data-v-0dd9719b="" x="0" y="0" width="100%" height="100%" fill="url(#watermark)" fill-opacity="1" class="watermarklayer"></rect> <g data-v-0dd9719b="" fill="#8dc63f" class="icon-text-wrapper icon-svg-group iconsvg" transform="translate(47.279998779296875,99.01652526855469)"><g class="iconsvg-imagesvg" transform="translate(0,0)"><g><rect fill="#8dc63f" fill-opacity="0" stroke-width="2" x="0" y="0" width="60" height="51.966949020423016" class="image-rect"></rect> <svg x="0" y="0" width="60" height="51.966949020423016" filtersec="colorsb4958870649" class="image-svg-svg primary" style="overflow: visible;"><svg version="1.1" id="图层_1" xmlns="http://www.w3.org/2000/svg" xmlns:xlink="http://www.w3.org/1999/xlink" x="0px" y="0px" viewBox="0.9100000262260437 1.1100006103515625 123.08999633789062 106.61000061035156" enable-background="new 0 0 125 109" xml:space="preserve">
<g>
	<path fill="#8DC63F" d="M69.55,96.65h7.8c-0.82,3.73-2.09,7.44-3.88,11.06H64.8c0.58-0.99,1.11-1.97,1.57-2.94
		c0.05-0.09,0.09-0.18,0.13-0.26C67.78,101.92,68.78,99.29,69.55,96.65z"></path>
	<path fill="#8DC63F" d="M107.14,25.2L124,54.41l-30.77,53.3H73.47c1.8-3.62,3.06-7.34,3.88-11.06h9.5l24.39-42.24L96.19,28.36
		L107.14,25.2z"></path>
	<polygon fill="#8DC63F" points="107.14,25.2 96.19,28.35 93.66,23.96 104.6,20.81 	"></polygon>
	<polygon fill="#8DC63F" points="93.66,23.96 96.19,28.36 71.11,35.58 70.87,34.74 66.39,31.81 	"></polygon>
	<path fill="#8DC63F" d="M77.35,96.64h-7.8c5.17-17.8-0.23-36.45-5.44-48.62c-3.55-8.27-7-13.55-7-13.55l2.25-0.65l7.03-2.02
		l4.48,2.93l0.25,0.85l-6.99,2.01c0,0,2.81,4.29,5.94,11.18C75.26,60.14,81.37,78.61,77.35,96.64z"></path>
	<path fill="#1C75BC" d="M69.2,96.64h-7.98C67.5,65.9,25.72,43.3,25.72,43.3l24.91-21.8l11.88,7.77l-7.02,2.2l-5.01-3.06
		L33.76,43.05C33.76,43.05,75.78,65.77,69.2,96.64z"></path>
	<path fill="#1C75BC" d="M61.21,96.65h7.99c-0.54,2.57-1.42,5.19-2.7,7.86c-0.04,0.09-0.09,0.18-0.13,0.26
		c-0.49,0.99-1.02,1.97-1.6,2.94h-7.86C59.09,103.92,60.48,100.23,61.21,96.65z"></path>
	<path fill="#1C75BC" d="M102.3,16.82l-10.81,3.39l-4.65-8.04H38.07L13.68,54.41l24.39,42.24h23.15c-0.74,3.59-2.12,7.28-4.3,11.07
		H31.68L0.91,54.41l30.77-53.3h61.55L102.3,16.82z"></path>
</g>
</svg></svg> <!----></g></g> <g transform="translate(67,12.008474349975586)"><g data-gra="path-name" fill-rule="" class="tp-name iconsvg-namesvg"><g transform="scale(1)"><g><path d="M13.97-26.96L13.97-26.96 23.2-3.19Q23.73-1.82 24.4-1.31 25.06-0.8 25.59-0.76L25.59-0.76 25.59 0Q24.46-0.08 22.92-0.09 21.38-0.11 19.82-0.11L19.82-0.11Q18.08-0.11 16.52-0.09 14.96-0.08 14.05 0L14.05 0 14.05-0.76Q15.99-0.84 16.5-1.42 17.01-2.01 16.25-3.95L16.25-3.95 9.8-21.61 10.48-22.59 4.71-7.56Q3.65-4.75 3.66-3.3 3.68-1.86 4.59-1.35 5.51-0.84 7.03-0.76L7.03-0.76 7.03 0Q5.77-0.08 4.63-0.09 3.49-0.11 2.32-0.11L2.32-0.11Q1.48-0.11 0.74-0.09 0-0.08-0.57 0L-0.57 0-0.57-0.76Q0.23-0.91 1.06-1.78 1.9-2.66 2.7-4.75L2.7-4.75 11.35-26.96Q11.96-26.92 12.66-26.92 13.37-26.92 13.97-26.96ZM5.7-10.94L16.63-10.94 16.63-10.18 5.32-10.18 5.7-10.94ZM50.81-26.89L50.81-26.89 50.81-26.13Q49.59-25.97 48.97-25.5 48.34-25.03 48.15-24 47.96-22.97 47.96-21.11L47.96-21.11 47.96-11.05Q47.96-8.58 47.62-6.53 47.28-4.48 46.41-3L46.41-3Q45.42-1.37 43.52-0.42 41.62 0.53 38.7 0.53L38.7 0.53Q36.95 0.53 35.13 0.13 33.3-0.27 31.86-1.37L31.86-1.37Q30.65-2.39 30-3.68 29.35-4.97 29.13-6.74 28.9-8.51 28.9-10.94L28.9-10.94 28.9-22.86Q28.9-24.27 28.69-24.93 28.48-25.59 27.87-25.84 27.27-26.09 26.05-26.13L26.05-26.13 26.05-26.89Q27-26.85 28.61-26.81 30.23-26.77 31.97-26.77L31.97-26.77Q33.72-26.77 35.34-26.81 36.95-26.85 38.01-26.89L38.01-26.89 38.01-26.13Q36.72-26.09 36.06-25.84 35.39-25.59 35.16-24.93 34.94-24.27 34.94-22.86L34.94-22.86 34.94-8.54Q34.94-6 35.39-4.27 35.85-2.54 37.01-1.67 38.16-0.8 40.18-0.8L40.18-0.8Q42.84-0.8 44.34-2.05 45.84-3.3 46.46-5.53 47.09-7.75 47.09-10.63L47.09-10.63 47.09-20.66Q47.09-22.75 46.82-23.87 46.56-24.99 45.78-25.48 45-25.97 43.41-26.13L43.41-26.13 43.41-26.89Q44.13-26.85 45.3-26.81 46.48-26.77 47.51-26.77L47.51-26.77Q48.42-26.77 49.31-26.81 50.2-26.85 50.81-26.89ZM75.87-26.89L75.87-26.89Q75.72-24.95 75.66-23.16 75.61-21.38 75.61-20.43L75.61-20.43Q75.61-19.59 75.65-18.84 75.68-18.08 75.72-17.54L75.72-17.54 74.85-17.54Q74.24-20.73 73.31-22.59 72.38-24.46 71.09-25.23 69.8-26.01 68.05-26.01L68.05-26.01 67.18-26.01 67.18-4.33Q67.18-2.81 67.5-2.05 67.82-1.29 68.7-1.04 69.57-0.8 71.24-0.76L71.24-0.76 71.24 0Q70.06-0.04 68.11-0.08 66.15-0.11 64.03-0.11L64.03-0.11Q61.94-0.11 60.08-0.08 58.22-0.04 57.08 0L57.08 0 57.08-0.76Q58.78-0.8 59.66-1.04 60.53-1.29 60.84-2.05 61.14-2.81 61.14-4.33L61.14-4.33 61.14-26.01 60.3-26.01Q58.56-26.01 57.27-25.23 55.97-24.46 55.06-22.61 54.15-20.77 53.47-17.54L53.47-17.54 52.59-17.54Q52.67-18.08 52.69-18.84 52.71-19.59 52.71-20.43L52.71-20.43Q52.71-21.38 52.65-23.16 52.59-24.95 52.44-26.89L52.44-26.89Q54.19-26.85 56.26-26.81 58.33-26.77 60.42-26.77 62.51-26.77 64.18-26.77L64.18-26.77Q65.89-26.77 67.96-26.77 70.03-26.77 72.11-26.81 74.2-26.85 75.87-26.89ZM91.94-27.42L91.94-27.42Q95.96-27.42 98.98-25.78 102-24.15 103.67-21.09 105.34-18.04 105.34-13.67L105.34-13.67Q105.34-9.42 103.63-6.23 101.92-3.04 98.87-1.25 95.81 0.53 91.9 0.53L91.9 0.53Q87.87 0.53 84.85-1.1 81.84-2.73 80.16-5.81 78.49-8.89 78.49-13.22L78.49-13.22Q78.49-17.47 80.22-20.66 81.95-23.85 84.97-25.63 87.99-27.42 91.94-27.42ZM91.78-26.73L91.78-26.73Q89.66-26.73 88.08-25.03 86.51-23.32 85.65-20.32 84.8-17.32 84.8-13.37L84.8-13.37Q84.8-9.34 85.77-6.36 86.73-3.38 88.39-1.77 90.04-0.15 92.05-0.15L92.05-0.15Q94.18-0.15 95.75-1.86 97.33-3.57 98.18-6.59 99.04-9.61 99.04-13.52L99.04-13.52Q99.04-17.58 98.07-20.54 97.1-23.51 95.45-25.12 93.8-26.73 91.78-26.73ZM117.76-27.38L117.76-27.38Q120-27.38 121.22-26.91 122.43-26.43 123.3-25.9L123.3-25.9Q123.76-25.63 124.04-25.5 124.33-25.37 124.59-25.37L124.59-25.37Q125.2-25.37 125.43-27.04L125.43-27.04 126.3-27.04Q126.27-26.32 126.21-25.31 126.15-24.3 126.13-22.67 126.11-21.04 126.11-18.38L126.11-18.38 125.24-18.38Q125.09-20.35 124.33-22.22 123.57-24.08 122.18-25.27 120.8-26.47 118.78-26.47L118.78-26.47Q116.96-26.47 115.78-25.44 114.61-24.42 114.61-22.59L114.61-22.59Q114.61-21.08 115.37-19.99 116.13-18.91 117.59-17.89 119.05-16.86 121.14-15.42L121.14-15.42Q122.96-14.24 124.41-13.06 125.85-11.89 126.72-10.41 127.59-8.92 127.59-6.87L127.59-6.87Q127.59-4.37 126.28-2.73 124.97-1.1 122.85-0.28 120.72 0.53 118.18 0.53L118.18 0.53Q115.82 0.53 114.42 0.08 113.01-0.38 112.06-0.87L112.06-0.87Q111.23-1.41 110.77-1.41L110.77-1.41Q110.16-1.41 109.94 0.27L109.94 0.27 109.06 0.27Q109.14-0.65 109.16-1.86 109.18-3.08 109.2-5.03 109.22-6.99 109.22-9.99L109.22-9.99 110.09-9.99Q110.24-7.48 110.94-5.3 111.65-3.11 113.11-1.78 114.57-0.46 117-0.46L117-0.46Q118.97-0.46 120.34-1.52 121.71-2.58 121.71-4.71L121.71-4.71Q121.71-7.06 120.11-8.6 118.52-10.14 116.01-11.77L116.01-11.77Q114.23-12.95 112.67-14.13 111.11-15.3 110.18-16.82 109.25-18.34 109.25-20.43L109.25-20.43Q109.25-22.82 110.45-24.36 111.65-25.9 113.6-26.64 115.56-27.38 117.76-27.38ZM150.76-26.89L150.76-26.89Q150.61-25.22 150.55-23.66 150.49-22.1 150.49-21.27L150.49-21.27Q150.49-20.51 150.53-19.82 150.57-19.14 150.61-18.68L150.61-18.68 149.73-18.68Q149.35-21.46 148.56-23.07 147.76-24.68 146.49-25.35 145.22-26.01 143.51-26.01L143.51-26.01 141.95-26.01Q140.81-26.01 140.26-25.82 139.71-25.63 139.52-25.08 139.33-24.53 139.33-23.32L139.33-23.32 139.33-3.57Q139.33-2.39 139.52-1.82 139.71-1.25 140.26-1.06 140.81-0.87 141.95-0.87L141.95-0.87 143.81-0.87Q145.52-0.87 146.83-1.61 148.14-2.35 149.07-4.14 150-5.92 150.49-8.96L150.49-8.96 151.37-8.96Q151.25-7.75 151.25-5.77L151.25-5.77Q151.25-4.9 151.29-3.3 151.33-1.71 151.52 0L151.52 0Q149.58-0.08 147.15-0.09 144.72-0.11 142.82-0.11L142.82-0.11Q141.53-0.11 139.41-0.11 137.28-0.11 134.89-0.09 132.49-0.08 130.44 0L130.44 0 130.44-0.76Q131.66-0.84 132.27-1.06 132.87-1.29 133.08-1.97 133.29-2.66 133.29-4.03L133.29-4.03 133.29-22.86Q133.29-24.27 133.08-24.93 132.87-25.59 132.25-25.84 131.62-26.09 130.44-26.13L130.44-26.13 130.44-26.89Q132.49-26.85 134.89-26.81 137.28-26.77 139.41-26.77 141.53-26.77 142.82-26.77L142.82-26.77Q144.57-26.77 146.79-26.79 149.01-26.81 150.76-26.89ZM138.19-13.9L144.84-13.9Q144.84-13.9 144.84-13.52 144.84-13.14 144.84-13.14L144.84-13.14 138.19-13.14Q138.19-13.14 138.19-13.52 138.19-13.9 138.19-13.9L138.19-13.9ZM145.06-18.91L145.94-18.91Q145.78-16.75 145.8-15.61 145.82-14.47 145.82-13.52L145.82-13.52Q145.82-12.57 145.86-11.43 145.9-10.29 146.05-8.13L146.05-8.13 145.18-8.13Q144.99-9.46 144.47-10.59 143.96-11.73 143.01-12.44 142.06-13.14 140.54-13.14L140.54-13.14 140.54-13.9Q142.06-13.9 142.97-14.73 143.89-15.57 144.38-16.73 144.87-17.89 145.06-18.91L145.06-18.91ZM168.3-27.42L168.3-27.42Q170.81-27.42 172.42-26.68 174.04-25.94 175.29-24.95L175.29-24.95Q176.05-24.38 176.45-24.82 176.85-25.25 177-26.89L177-26.89 177.87-26.89Q177.8-25.41 177.76-23.3 177.72-21.19 177.72-17.7L177.72-17.7 176.85-17.7Q176.66-19.44 176.35-20.68 176.05-21.91 175.52-22.86 174.99-23.81 174-24.57L174-24.57Q173.05-25.52 171.8-25.97 170.54-26.43 169.18-26.43L169.18-26.43Q167.13-26.43 165.68-25.35 164.24-24.27 163.35-22.41 162.46-20.54 162.04-18.21 161.62-15.87 161.62-13.37L161.62-13.37Q161.62-10.82 162.06-8.49 162.49-6.15 163.42-4.33 164.35-2.51 165.84-1.44 167.32-0.38 169.33-0.38L169.33-0.38Q170.58-0.38 171.85-0.85 173.13-1.33 174.04-2.24L174.04-2.24Q175.52-3.38 176.05-5.07 176.58-6.76 176.85-9.57L176.85-9.57 177.72-9.57Q177.72-5.96 177.76-3.74 177.8-1.52 177.87 0L177.87 0 177 0Q176.85-1.63 176.49-2.05 176.13-2.47 175.29-1.94L175.29-1.94Q173.89-0.95 172.31-0.21 170.73 0.53 168.27 0.53L168.27 0.53Q164.24 0.53 161.22-1.1 158.2-2.73 156.53-5.81 154.86-8.89 154.86-13.22L154.86-13.22Q154.86-17.47 156.59-20.66 158.32-23.85 161.34-25.63 164.35-27.42 168.3-27.42Z" transform="translate(0.5699999928474426, 27.420000076293945)"></path></g> <!----> <!----> <!----> <!----> <!----> <!----> <!----></g></g> <!----></g></g><defs v-gra="od"></defs></svg>